<svg width="287" height="419" viewBox="0 0 287 419" fill="none" xmlns="http://www.w3.org/2000/svg">
<path d="M64.5686 151.797V87.2446L96.4118 55.4298L90.7765 36.2715L47.0244 79.9841V159.057L94.8862 206.875L101.421 188.616L64.5686 151.797Z" fill="#FF6900"/>
<path d="M220.586 151.797V87.2446L188.743 55.4298L194.378 36.2715L238.13 79.9841V159.057L190.268 206.875L183.733 188.616L220.586 151.797Z" fill="#FF6900"/>
<path d="M112.605 189.781H172.919L156.489 138.103L189.316 16.4487L165.462 1.22943L139.518 150.933L106.445 16.9285L101.564 33.02L128.754 139.851L112.605 189.781Z" fill="black"/>
<path d="M109.767 198.557L103.915 216.65H181.461L175.709 198.557H109.767Z" fill="black"/>
<path d="M155.669 0L114.494 11.5648L138.386 112.74L155.669 0Z" fill="black"/>
<path d="M266.726 315.324H255.01L235.438 363.516H247.912L260.868 329.645L267.245 346.966H255.761L261.49 356.88H271.037L273.824 363.516H286.298L266.726 315.324Z" fill="black"/>
<path d="M235.556 328.75C234.261 320.921 228.185 315.323 217.18 315.323H198.021V363.516H209.048V325.237H216.028C217.218 325.237 219.12 325.406 220.216 325.868C228.218 329.236 225.331 340.507 213.075 340.878L217.992 349.721C231.016 348.002 237.321 339.42 235.556 328.75Z" fill="black"/>
<path d="M131.567 328.75C130.424 320.897 124.196 315.323 113.191 315.323H94.0328V363.516H105.06V325.237H112.04C113.229 325.237 115.132 325.406 116.228 325.868C124.23 329.236 121.342 340.507 109.087 340.878L120.635 363.516H133.04L123.92 345.235C129.268 341.473 132.796 337.191 131.567 328.75Z" fill="black"/>
<path d="M71.9573 344.268C71.9573 350.744 68.6465 354.74 62.5784 354.74C56.5099 354.74 53.1991 350.744 53.1991 344.268L53.1986 315.324H42.1659V344.889C42.1659 358.323 51.475 364.66 62.5784 364.66C73.6818 364.66 82.991 358.323 82.991 344.889V315.324H71.9578L71.9573 344.268Z" fill="black"/>
<path d="M11.0256 344.17H24.0849L29.8151 334.256L11.0256 334.256V325.237H27.6244L33.3536 315.324H0V363.516H28.1759L33.9056 353.602H11.0256V344.17Z" fill="black"/>
<path fill-rule="evenodd" clip-rule="evenodd" d="M163.603 314.18C149.382 314.18 140.202 323.765 140.202 339.421C140.202 355.074 149.382 364.66 163.603 364.66C177.823 364.66 187.005 355.074 187.005 339.421C187.005 323.765 177.823 314.18 163.603 314.18ZM163.603 354.73C156.7 354.73 151.247 349.764 151.247 339.421C151.247 329.076 156.7 324.111 163.603 324.111C170.507 324.111 175.96 329.076 175.96 339.421C175.96 349.764 170.507 354.73 163.603 354.73Z" fill="black"/>
<path d="M276.496 382.414L278.852 376.242H280.3V383.964H278.94V379.333L277.167 383.964H275.824L274.052 379.333V383.964H272.692V376.242H274.139L276.496 382.414Z" fill="black"/>
<path d="M268.078 377.461H265.699V376.242H271.799V377.461H269.42V383.964H268.078V377.461Z" fill="black"/>
<path d="M109.748 376.241L92.789 417.998H103.598L114.824 388.649L120.349 403.658H110.398L115.362 412.248H123.634L126.05 417.998H136.858L119.899 376.241H109.748Z" fill="black"/>
<path d="M213.096 401.326C213.096 406.938 210.227 410.402 204.969 410.402C199.711 410.402 196.842 406.938 196.842 401.326L196.842 376.241H187.282V401.864C187.282 413.507 195.348 418.999 204.969 418.999C214.59 418.999 222.656 413.507 222.656 401.864V376.241H213.096L213.096 401.326Z" fill="black"/>
<path d="M240.435 409.408V401.236H251.75L256.715 392.645L240.435 392.645V384.831H254.817L259.781 376.241H230.881V417.998H255.295L260.26 409.408H240.435Z" fill="black"/>
<path d="M69.805 401.235H81.1205L86.0857 392.645L69.805 392.645V384.831H84.1874L89.152 376.241H60.252V417.998H84.6651L89.6298 409.408H69.805V401.235Z" fill="black"/>
<path d="M34.3319 376.241H24.7783V417.998H49.396L54.3601 409.408H34.3319V376.241Z" fill="black"/>
<path d="M161.852 403.15H170.533V406.171C168.419 408.522 165.044 410.325 160.885 410.325C153.59 410.325 148.101 406.045 148.101 397.191C148.101 388.336 154.066 384.056 159.793 384.056C164.974 384.056 168.321 386.517 169.735 391.091L179.033 388.574C176.863 380.684 170.715 375.383 159.919 375.383C148.339 375.383 138.453 383.692 138.453 397.191C138.453 410.69 148.213 418.999 160.031 418.999C169.203 418.999 174.874 415.389 179.523 409.725V395.624H157.511L161.852 403.15Z" fill="black"/>
<path d="M172.964 258.354L163.501 255.904C161.562 255.402 160.913 255.584 160.35 257.756L159.925 259.394L170.878 262.229L169.4 267.929L158.448 265.094L155.888 275.002L152.275 274.067C151.565 273.883 151.016 273.493 150.69 272.938C150.364 272.384 150.288 271.716 150.473 271.005L154.447 255.685C155.743 250.684 159.396 248.689 164.729 250.07L174.459 252.588L172.964 258.354Z" fill="black"/>
<path d="M117.005 250.653L132.796 247.452L133.984 253.299L121.847 255.76L122.689 259.908L133.796 257.656L134.97 263.437L123.864 265.689L124.202 267.352C124.65 269.557 125.288 269.774 127.253 269.376L136.854 267.429L138.042 273.276L128.173 275.277C127.268 275.46 126.414 275.552 125.614 275.553C124.043 275.555 122.681 275.204 121.545 274.504C119.826 273.445 118.695 271.63 118.184 269.111L115.036 253.62C114.889 252.9 115.001 252.235 115.358 251.698C115.714 251.161 116.284 250.8 117.005 250.653Z" fill="black"/>
<path d="M198.704 266.001C200.22 267.167 200.003 268.5 199.708 269.403L192.247 295.053L187.101 290.348L188.184 286.612L183.522 283.132L187.276 280.445L189.45 282.077L191.919 273.758L177.592 283.015L171.717 279.694L194.193 265.164C195.059 264.603 196.245 264.108 197.744 265.262L198.704 266.001Z" fill="black"/>
<path d="M142.578 241.229C118.571 241.229 95.5819 249.652 77.8463 264.947C76.0036 266.536 74.2401 268.189 72.5539 269.895L69.2134 265.774C70.8718 264.116 72.5989 262.507 74.3977 260.956C93.0912 244.834 117.305 235.957 142.578 235.957C167.85 235.957 192.063 244.834 210.756 260.956C212.556 262.508 214.283 264.116 215.942 265.774L212.601 269.895C210.914 268.189 209.151 266.536 207.308 264.947C189.573 249.652 166.584 241.229 142.578 241.229Z" fill="black"/>
<path d="M184.704 304.265C175.439 292.746 159.678 284.826 142.578 284.826C125.477 284.826 109.716 292.746 100.451 304.265L97.2145 300.273C107.417 288.086 124.143 279.846 142.578 279.846C161.013 279.846 177.738 288.086 187.94 300.273L184.704 304.265Z" fill="black"/>
<path d="M95.5884 283.752C96.8338 283.899 98.2432 283.419 99.4557 282.434C100.674 281.445 101.435 280.164 101.545 278.918C101.691 277.337 101.256 276.267 99.6805 274.337L90.6435 263.226L95.5182 259.268L105.362 271.367C107.448 273.937 108.306 276.55 107.985 279.355C107.634 282.451 106.134 285.041 103.401 287.271C100.948 289.254 98.4174 290.214 95.6915 290.19C95.3657 290.187 95.037 290.17 94.7052 290.139C91.8924 289.881 89.5072 288.51 87.414 285.946L77.5681 273.845L82.4438 269.886L91.4843 280.991C93.0534 282.927 94.0118 283.572 95.5884 283.752Z" fill="black"/>
</svg>
