<?xml version="1.0" encoding="utf-8"?>
<svg xmlns="http://www.w3.org/2000/svg" width="1681" height="372" fill="none" preserveAspectRatio="xMidYMin slice">
  <g clip-path="url(#a)">
    <path fill="#000" d="M.5 0h1680v372H.5z"/>
    <path fill="#333" fill-rule="evenodd" d="m-5116.57 3265.57 2196.96 1344.95-669.49-674.81 2083.06 1275.22-669.48-674.81L-92.46 5811.34l-669.481-674.81L1321.12 6411.76l-669.485-674.81L2734.7 7012.17l-669.49-674.82 2083.06 1275.22-669.48-674.8 2083.06 1275.22-669.49-674.81L6975.42 8813.4l-919.07-926.38-1579.28-829.85 175.01 238.81-9.3-9.37-1579.28-829.86 174.99 238.82-9.29-9.37-1579.28-829.86 175 238.81-9.29-9.36-1579.29-829.86 174.996 238.81-9.285-9.37-1579.291-829.86 175 238.82-9.29-9.37-1579.29-829.85 175.01 238.81-9.29-9.37-1579.29-829.86 175.01 238.81-9.3-9.36-1579.29-829.86 301.4 411.29ZM-5466.16 2290.89l2196.68 1344.66-669.39-674.68 2082.8 1274.95-669.39-674.67 2082.794 1274.94-669.394-674.68L970.739 5436.36l-669.391-674.67L2384.15 6036.64l-669.39-674.68L3797.55 6636.9l-669.39-674.67 2082.79 1274.94-669.39-674.67 2082.8 1274.94-669.4-674.67 2082.8 1274.95-918.93-926.19-1579.1-829.68 174.98 238.76-9.29-9.36-1579.09-829.67 174.98 238.77-9.3-9.36-1579.08-829.68 174.97 238.77-9.29-9.37-1579.09-829.68 174.97 238.78-9.29-9.37-1579.089-829.68 174.98 238.77-9.29-9.36L-1527.3 3680.5l174.98 238.76-9.29-9.36-1579.09-829.67 174.98 238.76-9.29-9.37-1579.1-829.67 174.98 238.77-9.29-9.37-1579.09-829.67 301.35 411.21ZM-6119.7 895.349l301.37 411.311 2196.71 1345.12-669.42-674.87 2082.82 1275.38-669.42-674.86 2082.813 1275.39-669.433-674.87L618.566 4453.33l-669.424-674.87L2031.97 5053.85l-669.43-674.87 2082.82 1275.38-669.42-674.85 2082.82 1275.37-669.43-674.86L6272.15 6855.4l-669.42-674.86 2082.82 1275.38-669.43-674.87 2082.82 1275.38-918.99-926.45-1579.09-829.97 175 238.83-9.3-9.37-1579.1-829.98 175 238.83-9.3-9.37-1579.09-829.98 174.99 238.84-9.29-9.38-1579.1-829.98 174.99 238.83-9.29-9.37-1579.094-829.98 174.994 238.83-9.29-9.36-1579.099-829.99 174.996 238.83-9.293-9.36-1579.094-829.98 174.99 238.82-9.3-9.36-1579.09-829.98 174.99 238.82-9.29-9.36-1579.09-829.98 174.99 238.83-9.29-9.36-1579.1-829.981ZM-6168.74 324.895l2197.01 1344.675-669.48-674.691 2083.1 1274.951-669.47-674.7 2083.11 1274.97-669.48-674.71L269.156 3470.36l-669.487-674.71L1682.78 4070.62l-669.49-674.7L3096.4 4670.88l-669.48-674.7 2083.11 1274.96-669.49-674.7L5923.65 5871.4l-669.48-674.7 2083.11 1274.96-669.49-674.7L8750.9 7071.92l-669.48-674.7 2083.08 1274.97-919.03-926.23-1579.34-829.68 175.01 238.78-9.3-9.37-1579.33-829.67 175.01 238.79-9.3-9.37-1579.34-829.68 175 238.78-9.29-9.37-1579.33-829.67 175 238.78-9.3-9.37-1579.32-829.67 174.99 238.78-9.29-9.37-1579.334-829.67 174.998 238.78-9.291-9.37-1579.332-829.68 174.998 238.78-9.291-9.37-1579.338-829.67 175 238.77-9.29-9.36-1579.33-829.67 175.01 238.79-9.31-9.38-1579.33-829.665 175 238.767-9.29-9.362-1579.33-829.67 301.38 411.225ZM-6520.62-653.147l2197.01 1345.06-669.5-674.852 2083.09 1275.319-669.49-674.847 2083.1 1275.327-669.51-674.86L-82.804 2493.33l-669.508-674.87L1330.8 3093.8l-669.505-674.86L2744.39 3694.27l-669.5-674.86 2083.1 1275.33-669.5-674.86 2083.1 1275.33-669.5-674.85 2083.1 1275.33-669.5-674.87 2083.1 1275.33-669.5-674.85L9812.4 6696.63l-669.5-674.86L11226 7297.1l-919.1-926.44-1579.32-829.94 175.01 238.82-9.28-9.36-1579.32-829.93L7489 5179.08l-9.3-9.37-1579.31-829.93 175.01 238.83-9.3-9.37-1579.32-829.94 175.01 238.83-9.29-9.36-1579.31-829.94 175.01 238.83-9.3-9.36-1579.31-829.94 175 238.83-9.29-9.37-1579.318-829.93 175.009 238.83-9.292-9.37-1579.319-829.93 175.011 238.83-9.291-9.37-1579.32-829.935 175 238.825-9.28-9.36-1579.32-829.928 175.01 238.819-9.29-9.358-1579.32-829.94 175.01 238.833-9.29-9.372-1579.32-829.934 301.4 411.323ZM-6870.48-1634l2196.8 1344.847-669.43-674.761L-3260.2 311.207l-669.43-674.751 2082.91 1275.119-669.43-674.752L-433.248 1511.94l-669.432-674.766L980.234 2112.31 310.8 1437.54l2082.91 1275.13-669.43-674.76 2082.9 1275.12-669.43-674.75L5220.66 3913.4l-669.44-674.76 2082.92 1275.13L5964.7 3839l2082.92 1275.12-669.44-674.75 2082.91 1275.12-669.43-674.75 2082.94 1275.12-669.5-674.76L12288 6915.22l-919-926.3-1579.13-829.8 174.99 238.79-9.29-9.36-1579.18-829.79 174.99 238.78-9.28-9.35-1579.18-829.8 174.99 238.8-9.3-9.37-1579.17-829.8 175 238.8-9.31-9.37-1579.17-829.79 174.99 238.8-9.29-9.37-1579.17-829.79 174.99 238.8-9.3-9.38-1579.17-829.79 174.99 238.8-9.29-9.37-1579.181-829.796 174.99 238.796-9.289-9.36-1579.18-829.803 174.99 238.801-9.28-9.363-1579.19-829.799 174.99 238.786-9.29-9.358-1579.17-829.789 174.99 238.79-9.29-9.362-1579.18-829.793 175 238.8-9.3-9.37-1579.17-829.8 301.37 411.26ZM-7522.48-3028.72l301.37 411.26 2196.81 1344.85-669.44-674.76 2082.92 1275.119-669.44-674.759L-2197.35-71.881l-669.44-674.762L-783.878 528.481l-669.432-674.752L629.606 1128.85-39.835 454.087 2043.08 1729.21l-669.43-674.75 2082.91 1275.12-669.44-674.77 2082.91 1275.13-669.43-674.76 2082.91 1275.13-669.44-674.76 2082.92 1275.12-669.44-674.75 2082.92 1275.12-669.44-674.76 2082.87 1275.13-669.4-674.77 2082.9 1275.13-919-926.31-1579.16-829.79 174.99 238.79-9.28-9.36-1579.19-829.8 175 238.79-9.3-9.36-1579.17-829.79 174.99 238.79-9.29-9.37-1579.18-829.79 175 238.79-9.3-9.36-1579.18-829.8 174.99 238.8-9.29-9.36-1579.17-829.8 174.99 238.8-9.29-9.37L958.378 573.475l174.992 238.797-9.29-9.374-1579.179-829.79L-280.1 211.914l-9.296-9.367-1579.184-829.803 174.99 238.789-9.28-9.352-1579.18-829.8 174.99 238.79-9.3-9.361-1579.17-829.789 175 238.8-9.3-9.38-1579.17-829.8 174.99 238.81-9.3-9.37-1579.17-829.8ZM-7876.07-4008.93l301.37 411.26 2196.81 1344.85-669.43-674.76 2082.91 1275.12-669.44-674.76 2082.91 1275.12-669.44-674.76 2082.92 1275.135-669.43-674.765L276.019 148.636-393.413-526.12 1689.49 748.998l-669.44-674.76L3102.98 1349.36l-669.44-674.751L4516.45 1949.73l-669.44-674.76 2082.92 1275.12-669.44-674.76L7343.4 3150.46l-669.43-674.76 2082.91 1275.13-669.43-674.76 2082.95 1275.12-669.48-674.76 2082.88 1275.12-919-926.3-1579.14-829.8 174.98 238.79-9.28-9.36-1579.18-829.79 174.99 238.79-9.3-9.37-1579.17-829.79 175 238.8-9.3-9.37-1579.18-829.8 175 238.81-9.3-9.37-1579.17-829.797 174.99 238.787-9.3-9.36-1579.17-829.794 174.99 238.792-9.29-9.365L604.796-406.741 779.792-167.93l-9.3-9.376L-808.684-1007.1l174.993 238.788-9.292-9.357-1579.177-829.801 174.99 238.79-9.29-9.35-1579.18-829.81 174.99 238.81-9.29-9.38-1579.17-829.79 175 238.81-9.31-9.37-1579.17-829.8 174.99 238.79-9.29-9.36-1579.18-829.8ZM-7922.08-4578.17l2196.8 1344.84-669.44-674.76 2082.91 1275.13-669.43-674.76 2082.91 1275.12-669.44-674.76 2082.93 1275.13-669.45-674.76L-71.37-831.865l-669.432-674.755L1342.1-231.508 672.674-906.255 2755.58 368.859l-669.44-674.76L4169.06 969.231l-669.44-674.759L5582.53 1569.6l-669.44-674.766L6996 2169.95l-669.43-674.75 2082.92 1275.12-669.44-674.76 2082.92 1275.13-669.44-674.76 2082.87 1275.12-919-926.31-1579.14-829.79 174.99 238.79-9.29-9.36-1579.18-829.8 174.99 238.8-9.28-9.37-1579.18-829.79 175 238.79-9.3-9.36-1579.18-829.796 175 238.804-9.3-9.375-1579.18-829.795 175 238.794-9.3-9.366-1579.17-829.792 174.99 238.802-9.29-9.372L257.404-1387.24l174.986 238.79-9.289-9.36-1579.171-829.79 174.986 238.79-9.289-9.36-1579.177-829.8 174.99 238.8-9.29-9.37-1579.18-829.8 174.99 238.8-9.29-9.37-1579.18-829.79 175 238.8-9.29-9.37-1579.19-829.8 175 238.8-9.29-9.37-1579.18-829.79 301.38 411.26ZM-6862.95-4956.75l2197 1345.07-669.49-674.86 2083.09 1275.33-669.5-674.86 2083.1 1275.33-669.5-674.86 2083.109 1275.33-669.509-674.86L988.455-1209.8l-669.497-674.85L2402.05-609.335l-669.5-674.845L3815.65-8.861l-669.5-674.86 2083.1 1275.337-669.5-674.861L6642.86 1192.09l-669.51-674.867 2083.1 1275.327-669.5-674.85 2083.1 1275.32-669.5-674.86L10883.7 2993.5l-919.14-926.45-1579.32-829.93 175.01 238.83-9.28-9.37-1579.33-829.932 175.01 238.83-9.28-9.371L5558.05 36.175l175.01 238.828-9.3-9.367-1579.31-829.935 175 238.825-9.29-9.359-1579.31-829.937 175.01 238.844-9.3-9.378-1579.31-829.926 175.01 238.83-9.3-9.37-1579.311-829.94 175.005 238.83-9.294-9.37-1579.31-829.93 175.01 238.83-9.3-9.37-1579.31-829.93 175 238.83-9.29-9.37-1579.32-829.93 175.01 238.82-9.29-9.36-1579.32-829.94 175.01 238.83-9.29-9.36-1579.32-829.94 301.41 411.32ZM-5801.79-5338.12l2197 1344.67-669.47-674.7 2083.1 1274.97-669.48-674.7 2083.11 1274.96-669.49-674.7L636.094-2192.66l-669.487-674.71L2049.72-1592.4l-669.48-674.69 2083.1 1274.95-669.47-674.69 2083.1 1274.953-669.49-674.703L6290.6 208.391l-669.49-674.702L7704.22 808.654l-669.48-674.709 2083.1 1274.965-669.48-674.699L10531.5 2009.17l-919.09-926.23-1579.33-829.672 175 238.78-9.3-9.368-1579.33-829.674 175 238.779-9.3-9.367-1579.33-829.676 175.01 238.778-9.3-9.365L3792.2-1547.52l175 238.79-9.29-9.37-1579.33-829.67L2553.57-1909l-9.29-9.37-1579.329-829.67 174.989 238.78-9.29-9.37-1579.323-829.67 175 238.78-9.299-9.37-1579.328-829.67 175 238.78-9.29-9.37-1579.34-829.68 175 238.78-9.29-9.36-1579.34-829.68 175 238.77-9.29-9.35-1579.33-829.68 301.39 411.23ZM-4739.17-5719.04l2196.71 1345.13-669.42-674.86 2082.82 1275.38-669.43-674.87L284.334-3172.88l-669.428-674.86L1697.73-2572.36l-669.43-674.87 2082.83 1275.38-669.43-674.86 2082.82 1275.38-669.43-674.86L5937.91-770.812l-669.43-674.868L7351.31-170.289l-669.42-674.867L8764.71 430.228l-669.43-674.87L10178.1 1030.74l-918.99-926.451-1579.09-829.985L7855-486.86l-9.28-9.372-1579.1-829.978 174.99 238.82-9.29-9.35-1579.1-829.99 175.01 238.84-9.3-9.37-1579.1-829.98 175 238.83-9.3-9.37-1579.09-829.98 174.99 238.83-9.3-9.37-1579.086-829.98 175.003 238.85-9.307-9.38-1579.09-829.98 174.996 238.83-9.3-9.37-1579.096-829.98 174.99 238.83-9.29-9.37-1579.1-829.98 175 238.83-9.29-9.37-1579.1-829.97 301.37 411.3ZM-2612.68-6479.27l2196.955 1344.95-669.485-674.81L997.852-4533.9l-669.481-674.82L2411.43-3933.49l-669.49-674.82 2083.07 1275.23-669.48-674.82 2083.06 1275.22-669.48-674.8 2083.05 1275.21-669.48-674.79 2083.06 1275.21-669.49-674.81L9479.32-931.435l-919.07-926.375-1579.29-829.87 175.01 238.82-9.3-9.36-1579.29-829.87 175 238.81-9.28-9.36-1579.29-829.86 175 238.82-9.29-9.38-1579.29-829.85 175.01 238.81-9.3-9.36-1579.29-829.86 175.01 238.82-9.3-9.38-1579.284-829.85 175.01 238.81-9.297-9.36-1579.299-829.87 175.01 238.82-9.29-9.37-1579.28-829.86 301.39 411.29ZM-1548.3-6857.74 648.667-5513.37l-669.444-674.57L2062.28-4913.27l-669.45-674.58L3475.9-4313.19l-669.46-674.57 2083.08 1274.67-669.46-674.58L6303.13-3113l-669.44-674.56 2083.06 1274.65-669.45-674.56 2083.07 1274.65-919.03-926.04-1579.31-829.47L6807-3429.6l-9.28-9.35-1579.31-829.47 174.99 238.73-9.29-9.36-1579.31-829.46 174.99 238.74-9.3-9.37-1579.31-829.47 174.99 238.75-9.29-9.37L977.563-6068.7l174.997 238.74-9.3-9.37-1579.312-829.47 174.987 238.74-9.289-9.36-1579.306-829.47 301.36 411.15Z" clip-rule="evenodd"/>
  </g>
  <defs>
    <clipPath id="a">
      <path d="M.5 0h1680v372H.5z"/>
    </clipPath>
  </defs>
</svg>