<?xml version="1.0" encoding="UTF-8" standalone="no"?>
<!-- Generator: Adobe Illustrator 26.3.1, SVG Export Plug-In . SVG Version: 6.00 Build 0)  -->

<svg
   version="1.1"
   id="logo_aplati"
   x="0px"
   y="0px"
   viewBox="0 0 481.15645 599.99999"
   xml:space="preserve"
   sodipodi:docname="LogoASSE.svg"
   inkscape:version="1.1.1 (c3084ef, 2021-09-22)"
   width="481.15643"
   height="600"
   xmlns:inkscape="http://www.inkscape.org/namespaces/inkscape"
   xmlns:sodipodi="http://sodipodi.sourceforge.net/DTD/sodipodi-0.dtd"
   xmlns="http://www.w3.org/2000/svg"
   xmlns:svg="http://www.w3.org/2000/svg"><defs
   id="defs959" /><sodipodi:namedview
   id="namedview957"
   pagecolor="#ffffff"
   bordercolor="#666666"
   borderopacity="1.0"
   inkscape:pageshadow="2"
   inkscape:pageopacity="0.0"
   inkscape:pagecheckerboard="0"
   showgrid="false"
   inkscape:zoom="0.93689235"
   inkscape:cx="111.53896"
   inkscape:cy="258.30075"
   inkscape:window-width="1440"
   inkscape:window-height="900"
   inkscape:window-x="0"
   inkscape:window-y="0"
   inkscape:window-maximized="0"
   inkscape:current-layer="logo_aplati" />
<style
   type="text/css"
   id="style824">
	.st0{fill:#FFFFFF;}
	.st1{fill:#CDB789;}
	.st2{fill:#1D995B;}
	.st3{fill:#254D98;}
	.st4{fill:#D2353B;}
</style>





<g
   id="g8459"
   transform="matrix(1.0626993,0,0,1.0626993,-0.07004154,-0.63761958)"><g
     id="g3001"><path
       d="M 226.4,67.2 C 144.1,67.2 67,90.6 0.4,131.4 -0.3,150.9 0.1,170.7 1.6,190.8 14.3,361.4 105.1,503 226.4,565.2 347.7,503 438.5,361.4 451.3,190.8 c 1.5,-20.1 1.9,-39.9 1.2,-59.4 C 385.8,90.6 308.6,67.2 226.4,67.2 Z"
       id="path1552"
       style="fill:#cdb789;fill-opacity:1" /><path
       d="m 226.4,76.2 c 39.5,0 78.6,5.5 116.4,16.4 35.1,10.1 69,24.9 100.8,43.9 0.5,17.7 0,35.7 -1.3,53.5 -6.1,81 -30.4,158.4 -70.4,223.8 C 334,475.8 283.8,524.5 226.4,554.9 169,524.6 118.8,475.9 80.9,414 40.9,348.6 16.5,271.2 10.5,190.2 9.2,172.4 8.7,154.4 9.2,136.7 41,117.7 74.9,102.9 110,92.8 147.7,81.8 186.9,76.2 226.4,76.2"
       id="path830"
       style="fill:#ffffff" /><path
       class="st2"
       d="M 226.4,541.3 C 173.3,511.7 126.7,465.6 91.2,407.7 52.2,343.9 28.4,268.4 22.5,189.3 21.4,174.1 20.9,158.8 21.1,143.7 83.9,107.5 154.7,88.4 226.4,88.4 c 71.6,0 142.5,19.1 205.3,55.3 0.2,15.2 -0.3,30.5 -1.4,45.6 -5.9,79.1 -29.7,154.6 -68.7,218.4 -35.5,58 -82.2,104 -135.2,133.6 z"
       id="path832" /></g><g
     id="g1180"><path
       class="st0"
       d="m 90.4,332.1 v 56.4 c 2.8,4.9 5.6,9.8 8.5,14.6 13.6,22.3 29,42.8 45.7,61.2 V 394.5 C 124.3,376.2 106,355.2 90.4,332.1 Z"
       id="path834" /><path
       class="st0"
       d="m 308.2,394.4 v 69.8 c 16.8,-18.4 32.1,-38.9 45.7,-61.2 2.9,-4.8 5.8,-9.6 8.5,-14.6 V 332 c -15.7,23.2 -33.9,44.2 -54.2,62.4 z"
       id="path836" /><path
       class="st0"
       d="m 226.4,447.9 c -12.1,-5.4 -23.7,-11.6 -35,-18.6 v 78 c 11.3,8.7 23,16.6 35,23.5 12,-7 23.7,-14.8 35,-23.5 v -78 c -11.3,7 -23,13.2 -35,18.6 z"
       id="path838" /></g></g>








<g
   id="g8524"
   transform="matrix(1.0626993,0,0,1.0626993,-0.07004154,-0.63761958)"><g
     id="g1175"><path
       class="st2"
       d="m 207.5,470.2 v 24.9 h -3.8 v -18.5 c -0.8,1.2 -2.2,1.8 -3.3,1.8 V 475 c 1.8,-0.2 3.3,-1.8 3.3,-4.8 z"
       id="path840" /><path
       class="st2"
       d="m 222.6,474.4 v 16.9 c 0,2.6 -1.1,3.7 -3.5,3.7 h -8 v -3.6 h 7.8 v -6.3 h -5 c -2.6,0 -3.6,-1.3 -3.6,-4.1 v -6.7 c 0,-2.6 1.1,-4.2 3.4,-4.2 h 5.3 c 2.4,0.1 3.6,1.5 3.6,4.3 z m -8.6,7.3 h 4.9 v -8 H 214 Z"
       id="path842" /><path
       class="st2"
       d="m 225.1,490.9 v -3.3 h 3.8 v 4 h 4.9 v -7.8 h -4.7 v -3.4 h 4.6 v -6.9 h -4.8 v 3.3 h -3.7 V 474 c 0,-2.7 0.7,-3.9 3.6,-3.9 h 5.2 c 2.7,0 3.4,1.3 3.4,3.8 v 5.5 c 0,1.3 -0.4,2.1 -1.2,2.6 0.9,0.5 1.3,1.4 1.3,3 v 5.9 c 0,2.5 -1.1,4 -3.5,4 h -5.3 c -2.6,0.2 -3.6,-1.5 -3.6,-4 z"
       id="path844" /><path
       class="st2"
       d="m 239.9,490.9 v -3.3 h 3.8 v 4 h 4.9 v -7.8 h -4.7 v -3.4 h 4.6 v -6.9 h -4.8 v 3.3 H 240 V 474 c 0,-2.7 0.7,-3.9 3.6,-3.9 h 5.2 c 2.7,0 3.4,1.3 3.4,3.8 v 5.5 c 0,1.3 -0.4,2.1 -1.2,2.6 0.9,0.5 1.3,1.4 1.3,3 v 5.9 c 0,2.5 -1.1,4 -3.5,4 h -5.3 c -2.6,0.2 -3.6,-1.5 -3.6,-4 z"
       id="path846" /></g><g
     id="g1165"><path
       class="st0"
       d="m 237.2,338 c 0.5,-0.2 1,-0.3 1.5,-0.5 7.6,-2.1 21.5,-9.2 5,-8.7 l -2.9,0.3 c 0,0 29.9,-11 30.7,-18.9 0,0 0.6,-1.9 -8.9,-0.5 0,0 20.8,-17.1 20.5,-23.1 0,0 0.8,-4.5 -5.8,0.3 0,0 3.2,-20 -1.1,-22.3 0,0 -5,35.5 -41.8,60.7 0,0 -3.2,1.9 -8,5.1 -4.9,-3.3 -8.3,-5.3 -8.3,-5.3 -36.8,-25.2 -41.8,-60.7 -41.8,-60.7 -4.2,2.4 -1.1,22.3 -1.1,22.3 -6.6,-4.7 -5.8,-0.3 -5.8,-0.3 -0.3,6 20.5,23.1 20.5,23.1 -9.8,-2.2 -8.9,0.5 -8.9,0.5 0.8,7.9 30.7,18.9 30.7,18.9 l -2.9,-0.3 c -17.2,-1 -2.6,6.6 5,8.7 0.6,0.2 1.2,0.4 1.9,0.6 -14.4,11.1 -32,27.7 -31.8,43.2 0,0 12.6,-18.4 19.2,-23.4 6.6,-5 16,-6 16,-7.6 0,-1.6 -6,-2.1 -6,-2.1 0,0 6.5,-3.1 13.4,-6 6.7,2.8 12.9,5.8 12.9,5.8 0,0 -6,0.5 -6,2.1 0,1.6 9.5,2.6 16,7.6 6.6,5 19.2,23.4 19.2,23.4 0.2,-15.3 -17,-31.8 -31.4,-42.9 z"
       id="path850" /><g
       id="g860">
		<path
   class="st0"
   d="m 203.8,289 c -0.3,0.4 -0.4,0.9 -0.4,1.5 0,1.6 1.3,2.9 2.9,2.9 0.3,0 0.7,-0.1 1,-0.2 l 0.3,0.8 1.6,5.7 c 4.8,-1.1 11.2,-1.4 17.7,-1.4 6.2,0 12.4,0.3 17,1.4 l 1.6,-5.7 0.3,-0.8 c 0.3,0.1 0.6,0.2 1,0.2 1.6,0 2.9,-1.3 2.9,-2.9 0,-0.5 -0.2,-1.1 -0.4,-1.5 1.3,-0.9 2.5,-3 2.8,-4.1 1.8,-6.5 -2.9,-8.9 -7.2,-8.1 0.1,0.8 0.2,1.6 0.2,2.3 0,1 -0.1,1.9 -0.2,2.8 0.3,0 0.6,-0.1 1,0 2.8,0.3 3.6,3.9 2.9,6.4 -0.5,-0.4 -1.1,-0.7 -1.8,-0.7 -1.6,0 -2.9,1.3 -2.9,2.9 0,0.8 0.3,1.4 0.8,2 l -4.6,3 -1.4,-4.6 c 1.4,-0.2 2.4,-1.4 2.4,-2.8 0,-0.5 -0.1,-0.9 -0.3,-1.3 1.1,-1.3 2.1,-3.1 2.4,-4.1 3.5,-12.8 -13.1,-13 -16.6,-4.5 -3.5,-8.5 -20.1,-8.4 -16.6,4.5 0.3,1.1 1.3,2.8 2.4,4.1 -0.2,0.4 -0.3,0.8 -0.3,1.3 0,1.4 1.1,2.6 2.4,2.8 l -1.4,4.6 -4.6,-3 c 0.5,-0.5 0.8,-1.2 0.8,-2 0,-1.6 -1.3,-2.9 -2.9,-2.9 -0.7,0 -1.3,0.2 -1.8,0.7 -0.7,-2.5 0.1,-6.1 2.9,-6.4 0.3,0 0.6,0 1,0 -0.2,-0.9 -0.2,-1.9 -0.2,-2.8 0,-0.8 0.1,-1.6 0.2,-2.3 -4.4,-0.8 -9,1.6 -7.2,8.1 -0.2,1.1 1,3.2 2.3,4.1 z m 25.5,-6.5 c 1.1,-2.6 3.5,-3.8 5.7,-3.6 3,0.3 4.2,3.6 3.9,6.4 -0.3,-0.1 -0.6,-0.2 -1,-0.2 -1.6,0 -2.9,1.3 -2.9,2.9 0,1 0.5,1.8 1.2,2.3 l -4.8,2.7 -2.4,-3.8 c 1,-0.8 1.7,-2.1 1.7,-3.5 0.1,-1.2 -0.5,-2.4 -1.4,-3.2 z m -15.5,2.8 c -0.2,-2.9 1,-6.2 3.9,-6.4 2.2,-0.2 4.6,1 5.7,3.6 -0.9,0.8 -1.5,2 -1.5,3.3 0,1.4 0.7,2.7 1.7,3.5 l -2.4,3.8 -4.8,-2.7 c 0.7,-0.5 1.2,-1.4 1.2,-2.3 0,-1.6 -1.3,-2.9 -2.9,-2.9 -0.3,0 -0.6,0 -0.9,0.1 z"
   id="path852" />
		<path
   class="st0"
   d="m 242.7,301.6 c -4.3,-1.1 -10.1,-1.4 -16,-1.4 -6.1,0 -12.2,0.3 -16.6,1.4 l 0.6,3.2 c 10,-1.2 21.4,-1.2 31.4,0 z"
   id="path854" />
		<path
   class="st0"
   d="m 210.9,306.7 c 0,1.9 31.1,1.9 31.1,0 -0.1,-1.9 -31.1,-1.9 -31.1,0 z"
   id="path856" />
		<path
   class="st0"
   d="m 223.2,270.9 c -0.9,-1.5 1.3,-2.1 2.2,-0.5 0.1,0.1 0.1,0.2 0.2,0.4 -0.2,0.1 -0.4,0.3 -0.4,0.6 0,0.3 0.2,0.5 0.5,0.6 -0.2,0.6 -1,0.9 -1.5,0.5 0.1,0.7 0.8,0.9 1.4,0.7 0,0.5 0.2,1.1 0.9,1.5 0.7,-0.5 0.9,-1 0.9,-1.5 0.6,0.2 1.2,0 1.4,-0.7 -0.5,0.3 -1.3,0.1 -1.5,-0.5 0.3,-0.1 0.5,-0.3 0.5,-0.6 0,-0.3 -0.2,-0.5 -0.4,-0.6 0,-0.1 0.1,-0.2 0.2,-0.4 0.9,-1.6 3.1,-1 2.2,0.5 4.5,-0.6 0.7,-6.8 -2.7,-1 0.2,-1.1 0.8,-2 0.8,-3.9 0,-1.7 -0.7,-2.4 -1.3,-3.2 -0.7,0.8 -1.3,1.5 -1.3,3.2 0,1.9 0.6,2.8 0.8,3.9 -3.6,-5.8 -7.4,0.4 -2.9,1 z"
   id="path858" />
	</g><g
       id="g872">
		<polygon
   class="st0"
   points="218.2,374.8 218.2,376.8 218.2,378.9 224.3,378.9 224.3,385.1 226.4,385.1 228.4,385.1 228.4,378.9 234.6,378.9 234.6,376.8 234.6,374.8 228.4,374.8 228.4,368.6 226.4,368.6 224.3,368.6 224.3,374.8 "
   id="polygon862" />
		<circle
   class="st0"
   cx="226.39999"
   cy="366.60001"
   r="2.0999999"
   id="circle864" />
		<circle
   class="st0"
   cx="236.7"
   cy="376.79999"
   r="2.0999999"
   id="circle866" />
		<circle
   class="st0"
   cx="216.10001"
   cy="376.79999"
   r="2.0999999"
   id="circle868" />
		<circle
   class="st0"
   cx="226.39999"
   cy="387.10001"
   r="2.0999999"
   id="circle870" />
	</g><g
       id="g898">
		<g
   id="g884">
			<polygon
   class="st0"
   points="268.7,336.6 268.7,338.6 268.7,340.7 274.8,340.7 274.8,346.8 276.9,346.8 278.9,346.8 278.9,340.7 285.1,340.7 285.1,338.6 285.1,336.6 278.9,336.6 278.9,330.4 276.9,330.4 274.8,330.4 274.8,336.6 "
   id="polygon874" />
			<circle
   class="st0"
   cx="276.89999"
   cy="328.29999"
   r="2.0999999"
   id="circle876" />
			<circle
   class="st0"
   cx="287.20001"
   cy="338.60001"
   r="2.0999999"
   id="circle878" />
			<circle
   class="st0"
   cx="266.60001"
   cy="338.60001"
   r="2.0999999"
   id="circle880" />
			<circle
   class="st0"
   cx="276.89999"
   cy="348.89999"
   r="2.0999999"
   id="circle882" />
		</g>
		<g
   id="g896">
			<polygon
   class="st0"
   points="167.7,336.5 167.7,338.5 167.7,340.6 173.8,340.6 173.8,346.7 175.9,346.7 177.9,346.7 177.9,340.6 184.1,340.6 184.1,338.5 184.1,336.5 177.9,336.5 177.9,330.3 175.9,330.3 173.8,330.3 173.8,336.5 "
   id="polygon886" />
			<circle
   class="st0"
   cx="175.89999"
   cy="328.20001"
   r="2.0999999"
   id="circle888" />
			<circle
   class="st0"
   cx="186.2"
   cy="338.5"
   r="2.0999999"
   id="circle890" />
			<circle
   class="st0"
   cx="165.60001"
   cy="338.5"
   r="2.0999999"
   id="circle892" />
			<circle
   class="st0"
   cx="175.89999"
   cy="348.79999"
   r="2.0999999"
   id="circle894" />
		</g>
	</g></g><g
     id="g1054"><path
       class="st0"
       d="m 110.5,210.9 -20.7,6.5 1.6,15.4 -15.9,5 -6.9,-80 25.4,-8 40,69.6 -16,5 z m -22.2,-7.5 15.4,-4.9 -17.3,-31.2 -1.7,0.5 z"
       id="path902" /><path
       class="st0"
       d="m 211.9,194.4 c 0.9,9 -3.2,15.1 -12.2,16 l -26.9,2.7 c -7.7,0.8 -14,-3.1 -15,-12.9 l -1.2,-12.5 16.1,-1.6 1.3,12.6 22,-2.2 -1.3,-13.2 -31.7,-8.9 c -5.9,-2 -8.1,-4.8 -8.8,-11.6 l -1.4,-13.9 c -0.9,-9 3.6,-13 11.7,-13.8 l 27.7,-2.8 c 10.3,-1 14,3.8 15,13.9 l 1,10.3 -16.1,1.6 -1.1,-11.4 -22,2.2 1.2,11.6 31.8,8.6 c 6.1,1.9 8,4.7 8.7,12 z"
       id="path904" /><path
       class="st0"
       d="m 298.3,200.8 c -1,9 -6.3,14.1 -15.3,13.1 l -26.8,-3 c -7.7,-0.9 -13,-6 -11.9,-15.8 l 1.4,-12.5 16.1,1.8 -1.4,12.6 21.9,2.5 1.5,-13.2 -29.2,-15.3 c -5.4,-3.2 -6.9,-6.4 -6.2,-13.2 l 1.6,-13.9 c 1,-9 6.2,-11.9 14.3,-11 L 292,136 c 10.3,1.2 12.8,6.7 11.7,16.7 l -1.2,10.3 -16.1,-1.8 1.3,-11.4 -21.9,-2.5 -1.3,11.6 29.3,15.1 c 5.6,3.2 6.8,6.2 6,13.5 z"
       id="path906" /><path
       class="st0"
       d="m 349.4,147 45.8,14.1 -4.2,13.6 -30.1,-9.3 -5.2,17.1 21.6,6.6 -4.1,13.5 -21.6,-6.6 -5.3,17.2 30.1,9.3 -4.2,13.6 -45.8,-14.1 z"
       id="path908" /></g><g
     id="g8466"><path
       class="st0"
       d="m 191.3,405.2 h 2.5 v 12.9 h 6.1 v 2.3 h -8.6 z"
       id="path912" /><path
       class="st0"
       d="m 207.6,417.9 v -10.5 c 0,-1.5 0.8,-2.2 2.2,-2.2 h 5.5 c 1.7,0 2.2,0.9 2.2,2.6 v 9.9 c 0,1.5 -0.8,2.6 -2.4,2.6 h -5.2 c -1.3,0.1 -2.3,-0.6 -2.3,-2.4 z m 7.4,0.2 v -10.6 h -4.9 v 10.6 z"
       id="path914" /><path
       class="st0"
       d="m 225.1,405.2 h 2.5 v 15.2 h -2.5 z"
       id="path916" /><path
       class="st0"
       d="m 235.4,420.4 v -15.2 h 7.5 c 1.5,0 2.1,0.8 2.1,2.5 v 5.7 c 0,1.3 -0.5,2 -1.5,2.1 l 1.7,4.9 h -2.5 l -1.6,-4.9 H 238 v 4.9 z m 7.2,-7.1 v -5.8 H 238 v 5.8 z"
       id="path918" /><path
       class="st0"
       d="m 253,405.2 h 8.5 v 2.3 h -6 v 4.2 h 4.2 v 2.2 h -4.2 v 4.2 h 6 v 2.3 H 253 Z"
       id="path920" /></g><g
     id="g1082"><path
       class="st0"
       d="m 126.3,257.6 c 0.7,2.5 0.1,4.2 -2.2,4.9 l -5.9,1.7 c -1.9,0.6 -3.6,-0.2 -4.4,-2.7 l -1.1,-3.7 3.5,-1 1.2,4.1 5.6,-1.6 -1.4,-4.9 -8.5,-1.7 c -1.4,-0.3 -2,-0.9 -2.5,-2.5 l -1.2,-4.2 c -0.7,-2.3 0.1,-3.6 2.2,-4.2 l 6,-1.8 c 2.5,-0.7 3.6,0.2 4.4,2.8 l 0.9,3.2 -3.5,1 -1.1,-3.8 -5.6,1.6 1.2,4.3 8.6,1.7 c 1.4,0.3 2,0.9 2.4,2.5 z"
       id="path922" /><path
       class="st0"
       d="m 141.6,253 -5.6,1.3 0.3,4.9 -3.6,0.9 -1,-23.8 6,-1.4 9.6,21.8 -3.7,0.9 z m -5.7,-2.1 4.5,-1 -4.6,-10.9 -0.5,0.1 z"
       id="path924" /><path
       class="st0"
       d="m 148.9,232.5 3.6,-0.7 4.4,23 -3.6,0.7 z"
       id="path926" /><path
       class="st0"
       d="m 173.3,252.1 -5.4,-9.9 c -1,-1.8 -2.4,-5 -3.7,-7.9 0.5,2.9 1.1,6.1 1.3,7.6 l 1.6,11 -3.2,0.5 -3.4,-23.1 4.5,-0.7 5.6,10.4 c 1,1.9 2.6,5.3 3.9,8.1 -0.6,-3 -1.2,-6.4 -1.4,-8 l -1.7,-11.4 3.2,-0.5 3.4,23.1 z"
       id="path928" /><path
       class="st0"
       d="m 186.9,230.4 -5,0.5 -0.3,-3.4 13.7,-1.3 0.3,3.4 -5,0.5 1.9,19.9 -3.7,0.3 z"
       id="path930" /><path
       class="st0"
       d="m 200.1,236.5 7.8,-0.4 0.2,3.4 -7.8,0.4 z"
       id="path932" /><path
       class="st0"
       d="m 214.8,225.1 11.3,-0.2 0.1,3.4 -7.7,0.1 0.1,6.7 5.4,-0.1 0.1,3.3 -5.4,0.1 0.1,6.6 7.7,-0.1 0.1,3.4 -11.3,0.2 z m 3.6,-1.3 1.5,-4.3 4.2,-0.1 -2.7,4.3 z"
       id="path934" /><path
       class="st0"
       d="m 237.4,228.6 -5,-0.2 0.1,-3.5 13.7,0.4 -0.1,3.5 -5,-0.2 -0.6,19.9 -3.7,-0.1 z"
       id="path936" /><path
       class="st0"
       d="m 253,225.8 3.7,0.3 -1.6,23.3 -3.7,-0.3 z"
       id="path938" /><path
       class="st0"
       d="m 264.8,226.8 11.2,1.2 -0.4,3.4 -7.6,-0.8 -0.7,6.7 5.4,0.6 -0.4,3.3 -5.4,-0.6 -0.7,6.5 7.6,0.8 -0.4,3.4 -11.3,-1.2 z"
       id="path940" /><path
       class="st0"
       d="m 289.2,253.6 -2.2,-11 c -0.4,-2 -0.8,-5.5 -1.2,-8.7 -0.4,3 -0.8,6.2 -1,7.7 l -1.8,11 -3.2,-0.5 3.7,-23.1 4.5,0.7 2.2,11.6 c 0.4,2.1 0.9,5.8 1.3,8.9 0.4,-3 0.8,-6.5 1.1,-8.1 l 1.8,-11.4 3.2,0.5 -3.7,23.1 z"
       id="path942" /><path
       class="st0"
       d="m 309.9,257.7 -1.5,-11.1 c -0.3,-2 -0.5,-5.5 -0.7,-8.7 -0.5,2.9 -1.1,6.1 -1.5,7.6 l -2.4,10.9 -3.2,-0.7 5,-22.9 4.4,1 1.5,11.7 c 0.3,2.1 0.6,5.8 0.8,8.9 0.6,-3 1.2,-6.5 1.5,-8 l 2.5,-11.2 3.2,0.7 -5,22.9 z"
       id="path944" /><path
       class="st0"
       d="m 327.6,237.9 10.9,3 -0.9,3.3 -7.4,-2 -1.8,6.5 5.2,1.4 -0.9,3.2 -5.2,-1.4 -1.8,6.3 7.4,2 -0.9,3.3 -10.9,-3 z"
       id="path946" /></g></g>


<g
   id="g8289"
   transform="matrix(1.0626993,0,0,1.0626993,-0.07004154,-0.63761958)"><path
     d="M 226.4,0.6 211,47.9 h -49.8 l 40.3,29.3 -15.4,47.4 40.3,-29.3 40.3,29.3 L 251.3,77.3 291.6,48 h -49.8 z"
     id="path6880"
     style="fill:#254d98;fill-opacity:1" /><path
     d="m 226.4,15.2 11.1,34.1 1,3.1 h 3.3 35.8 l -29,21.1 -2.7,1.9 1,3.1 11.1,34.1 -29,-21.1 -2.7,-1.9 -2.7,1.9 -29,21.1 11.1,-34.1 1,-3.1 -2.7,-1.9 -29,-21.1 h 36 3.3 l 1,-3.1 11.1,-34.1"
     id="path952"
     style="fill:#ffffff" /><path
     d="m 226.4,35.5 -7.5,23.2 h -24.5 l 19.8,14.4 -7.6,23.2 19.8,-14.4 19.8,14.4 -7.6,-23.2 19.8,-14.4 H 234 Z"
     id="path3010"
     style="fill:#d2353b;fill-opacity:1" /><path
     d="m 226.4,46.4 4.3,13.4 0.8,2.3 h 2.5 14 l -11.4,8.3 -2,1.4 0.8,2.3 4.3,13.4 -11.4,-8.3 -2,-1.4 -2,1.4 -11.3,8.3 4.3,-13.4 0.8,-2.3 -2,-1.4 -11.4,-8.3 h 14.1 2.5 l 0.8,-2.3 4.3,-13.4"
     id="path954"
     style="fill:#ffffff" /></g>
</svg>
